<?xml version="1.0" encoding="UTF-8"?>
<svg id="Capa_1" xmlns="http://www.w3.org/2000/svg" version="1.1" viewBox="0 0 1000 400">
  <!-- Generator: Adobe Illustrator 29.1.0, SVG Export Plug-In . SVG Version: 2.1.0 Build 142)  -->
  <defs>
    <style>
      .st0 {
        fill: #4c003e;
      }
    </style>
  </defs>
  <path class="st0" d="M5,384.74h354.08V15.26H5v369.48ZM353.95,379.62H10.13V20.4h343.82v359.22Z"/>
  <path class="st0" d="M466.5,113.84c0,14.66-9.63,21.74-23.43,21.74s-22.94-6.49-22.94-21.14v-29.24h-4.6v-8.35h21.14v8.35h-4.61v29.24c0,8.44,4.09,11.67,11.59,11.67s11.85-3.23,11.85-11.67v-29.24h-4.61v-8.35h20.21v8.35h-4.61v28.64Z"/>
  <path class="st0" d="M521.38,85.2h-5.11v-8.35h19.86v8.35h-4.6v49.6h-8.7l-24.46-32.22c-2.73-3.56-4.78-7.75-5.03-8.34,0,.33.42,6.56.42,11.33v20.87h5.03v8.36h-19.77v-8.36h4.6v-41.24h-4.6v-8.35h14.14l24.29,31.96c2.05,2.81,4.7,7.51,5.03,8.02-.08-.43-1.11-6.49-1.11-10.49v-21.14Z"/>
  <polygon class="st0" points="561.1 126.45 565.71 126.45 565.71 134.8 544.56 134.8 544.56 126.45 549.17 126.45 549.17 85.21 544.56 85.21 544.56 76.85 565.71 76.85 565.71 85.21 561.1 85.21 561.1 126.45"/>
  <path class="st0" d="M595.36,85.2h-5.54l8.44,22.59c1.45,3.83,2.89,10.4,2.89,10.4,0,0,1.7-6.48,3.24-10.31l9.11-22.68h-6.14v-8.35h21.56v8.35h-4.68l-20.72,49.6h-6.56l-19.6-49.6h-4.7v-8.35h22.68v8.35Z"/>
  <polygon class="st0" points="635.93 134.8 635.93 126.45 640.54 126.45 640.54 85.2 635.93 85.2 635.93 76.84 678.89 76.84 678.89 92.86 670.36 92.86 668.73 86.05 652.47 86.05 652.47 101.14 671.9 101.14 671.9 110.26 652.47 110.26 652.47 125.59 669.93 125.59 671.56 118.78 680.08 118.78 680.08 134.8 635.93 134.8"/>
  <path class="st0" d="M715.19,76.84c11.85,0,21.56,5.37,21.56,18.83,0,8.44-4.53,13.72-11.33,16.28l8.36,14.48h5.54v8.36h-13.9l-11.92-20.97h-7.85v12.62h5.2v8.36h-21.73v-8.36h4.6v-41.25h-4.6v-8.35h26.08ZM714.85,105.14c5.88,0,9.64-2.63,9.64-9.46s-3.93-9.62-9.64-9.62h-9.21v19.08h9.21Z"/>
  <path class="st0" d="M774.77,92.7c-.78-4.51-4.09-7.34-8.78-7.34-4.26,0-7.32,2.13-7.32,6.05,0,3.49,2.39,5.29,8.27,7.42l3.58,1.28c10.14,3.57,15.85,8.78,15.85,18.15,0,12.18-8.96,17.3-18.25,17.3-6.98,0-10.9-2.3-13.3-5.19l-1.11,4.43h-7.41v-17.91h9.03c.6,5.2,4.43,9.37,10.99,9.37,5.29,0,8.62-2.73,8.62-6.98,0-3.58-2.66-6.05-9.38-8.44l-3.58-1.28c-9.11-3.23-14.31-7.91-14.31-17.65,0-8.94,7.24-15.76,16.53-15.76,4.76,0,8.78,1.87,11.17,4.86l.85-4.17h7.5v15.85h-8.95Z"/>
  <polygon class="st0" points="809.97 126.45 814.58 126.45 814.58 134.8 793.43 134.8 793.43 126.45 798.04 126.45 798.04 85.21 793.43 85.21 793.43 76.85 814.58 76.85 814.58 85.21 809.97 85.21 809.97 126.45"/>
  <path class="st0" d="M845.43,76.84c17.81,0,30.52,11.51,30.52,28.98s-12.63,28.98-30.52,28.98h-22.41v-8.36h4.59v-41.25h-4.59v-8.35h22.41ZM844.83,125.6c12.87,0,18.75-7.84,18.75-19.77s-5.88-19.77-18.75-19.77h-5.28v39.55h5.28Z"/>
  <path class="st0" d="M892.55,76.85h28.22v8.35h-5.54l15.09,41.25h4.52v8.36h-22.08v-8.36h5.37l-2.22-6.21h-20.28l-2.22,6.21h7.5v8.36h-22.83v-8.36h4.6l15.68-41.25h-5.81v-8.35ZM898.78,111.7h14.14l-2.89-8.18c-2.05-5.71-3.75-13.63-3.92-14.4-.18.42-2.3,8.69-4.35,14.4l-2.99,8.18Z"/>
  <path class="st0" d="M458.4,179.38h-5.11v-8.35h19.86v8.35h-4.6v49.6h-8.7l-24.46-32.21c-2.73-3.57-4.78-7.75-5.03-8.35,0,.33.42,6.56.42,11.33v20.88h5.03v8.35h-19.77v-8.35h4.61v-41.25h-4.61v-8.35h14.14l24.29,31.96c2.05,2.81,4.7,7.51,5.03,8.02-.08-.43-1.11-6.49-1.11-10.49v-21.14Z"/>
  <path class="st0" d="M492.06,171.02h28.22v8.35h-5.54l15.09,41.25h4.52v8.36h-22.08v-8.36h5.37l-2.22-6.21h-20.28l-2.21,6.21h7.49v8.36h-22.83v-8.36h4.6l15.68-41.25h-5.81v-8.35ZM498.29,205.88h14.14l-2.89-8.18c-2.05-5.71-3.75-13.63-3.92-14.4-.18.42-2.3,8.69-4.35,14.4l-2.99,8.18Z"/>
  <path class="st0" d="M579,189.01c-1.62-5.8-6.39-8.96-13.38-8.96-11,0-16.96,9.64-16.96,19.61,0,10.83,5.96,20.2,17.55,20.2,7.93,0,11.86-4.17,14.74-8.86l8.7,5.71c-4.86,7.25-10.91,13.04-24.03,13.04-17.14,0-29.24-12.02-29.24-29.06,0-17.9,12.61-30.33,28.47-30.33,8.43,0,11.93,2.89,14.14,5.44l.93-4.76h7.76v17.98h-8.69Z"/>
  <polygon class="st0" points="613.35 220.63 617.96 220.63 617.96 228.98 596.81 228.98 596.81 220.63 601.42 220.63 601.42 179.38 596.81 179.38 596.81 171.03 617.96 171.03 617.96 179.38 613.35 179.38 613.35 220.63"/>
  <path class="st0" d="M626.05,200c0-17.13,12.95-29.74,29.99-29.74s30,12.62,30,29.74-12.96,29.75-30,29.75-29.99-12.62-29.99-29.75M673.78,200c0-11.93-7.16-19.95-17.73-19.95s-17.73,8.02-17.73,19.95,7.16,19.95,17.73,19.95,17.73-8.02,17.73-19.95"/>
  <path class="st0" d="M736.5,179.38h-5.11v-8.35h19.86v8.35h-4.6v49.6h-8.7l-24.46-32.21c-2.73-3.57-4.78-7.75-5.03-8.35,0,.33.42,6.56.42,11.33v20.88h5.03v8.35h-19.77v-8.35h4.6v-41.25h-4.6v-8.35h14.14l24.29,31.96c2.05,2.81,4.7,7.51,5.03,8.02-.08-.43-1.11-6.49-1.11-10.49v-21.14Z"/>
  <path class="st0" d="M770.16,171.02h28.22v8.35h-5.54l15.09,41.25h4.52v8.36h-22.08v-8.36h5.37l-2.22-6.21h-20.28l-2.21,6.21h7.49v8.36h-22.83v-8.36h4.6l15.68-41.25h-5.81v-8.35ZM776.39,205.88h14.14l-2.89-8.18c-2.05-5.71-3.75-13.63-3.92-14.4-.18.42-2.3,8.69-4.35,14.4l-2.99,8.18Z"/>
  <polygon class="st0" points="819.01 220.63 823.62 220.63 823.62 179.38 819.01 179.38 819.01 171.03 840.15 171.03 840.15 179.38 835.55 179.38 835.55 219.78 851.56 219.78 853.18 210.57 861.79 210.57 861.79 228.98 819.01 228.98 819.01 220.63"/>
  <path class="st0" d="M912.25,171.03c17.81,0,30.52,11.5,30.52,28.97s-12.63,28.98-30.52,28.98h-22.41v-8.35h4.59v-41.26h-4.59v-8.34h22.41ZM911.65,219.78c12.87,0,18.75-7.84,18.75-19.77s-5.88-19.77-18.75-19.77h-5.28v39.55h5.28Z"/>
  <polygon class="st0" points="416.04 323.16 416.04 314.81 420.65 314.81 420.65 273.56 416.04 273.56 416.04 265.2 459 265.2 459 281.23 450.48 281.23 448.84 274.42 432.58 274.42 432.58 289.5 452 289.5 452 298.62 432.58 298.62 432.58 313.96 450.04 313.96 451.66 307.14 460.19 307.14 460.19 323.16 416.04 323.16"/>
  <path class="st0" d="M491.47,265.2c17.81,0,30.52,11.51,30.52,28.98s-12.63,28.98-30.52,28.98h-22.41v-8.35h4.59v-41.26h-4.59v-8.35h22.41ZM490.87,313.96c12.87,0,18.75-7.84,18.75-19.77s-5.88-19.77-18.75-19.77h-5.28v39.55h5.28Z"/>
  <path class="st0" d="M579.6,302.2c0,14.66-9.64,21.74-23.43,21.74s-22.94-6.49-22.94-21.14v-29.24h-4.61v-8.35h21.15v8.35h-4.61v29.24c0,8.44,4.09,11.67,11.59,11.67s11.85-3.23,11.85-11.67v-29.24h-4.61v-8.35h20.21v8.35h-4.61v28.64Z"/>
  <path class="st0" d="M633.46,283.19c-1.62-5.8-6.39-8.96-13.38-8.96-11,0-16.96,9.64-16.96,19.61,0,10.83,5.96,20.2,17.55,20.2,7.93,0,11.86-4.17,14.74-8.86l8.7,5.71c-4.86,7.25-10.91,13.04-24.03,13.04-17.14,0-29.24-12.02-29.24-29.06,0-17.9,12.61-30.33,28.47-30.33,8.43,0,11.93,2.89,14.14,5.44l.93-4.76h7.76v17.98h-8.69Z"/>
  <path class="st0" d="M663.88,265.21h28.22v8.35h-5.54l15.09,41.25h4.52v8.36h-22.08v-8.36h5.37l-2.22-6.21h-20.28l-2.22,6.21h7.5v8.36h-22.83v-8.36h4.6l15.68-41.25h-5.81v-8.35ZM670.11,300.07h14.14l-2.89-8.18c-2.05-5.71-3.75-13.63-3.92-14.4-.18.42-2.3,8.69-4.35,14.4l-2.99,8.18Z"/>
  <path class="st0" d="M750.74,283.19c-1.62-5.8-6.39-8.96-13.38-8.96-11,0-16.96,9.64-16.96,19.61,0,10.83,5.96,20.2,17.55,20.2,7.93,0,11.86-4.17,14.74-8.86l8.7,5.71c-4.86,7.25-10.91,13.04-24.03,13.04-17.14,0-29.24-12.02-29.24-29.06,0-17.9,12.61-30.33,28.47-30.33,8.43,0,11.93,2.89,14.14,5.44l.93-4.76h7.76v17.98h-8.69Z"/>
  <polygon class="st0" points="785 314.81 789.61 314.81 789.61 323.16 768.46 323.16 768.46 314.81 773.07 314.81 773.07 273.57 768.46 273.57 768.46 265.21 789.61 265.21 789.61 273.57 785 273.57 785 314.81"/>
  <path class="st0" d="M797.61,294.18c0-17.13,12.96-29.74,30-29.74s29.99,12.61,29.99,29.74-12.95,29.75-29.99,29.75-30-12.62-30-29.75M845.34,294.18c0-11.93-7.16-19.95-17.72-19.95s-17.73,8.02-17.73,19.95,7.16,19.94,17.73,19.94,17.72-8.01,17.72-19.94M827.36,242.53h13.12l-8.86,16.02h-8.69l4.43-16.02Z"/>
  <path class="st0" d="M963.9,76.84c17.81,0,30.52,11.51,30.52,28.98s-12.63,28.98-30.52,28.98h-22.41v-8.36h4.59v-41.25h-4.59v-8.35h22.41ZM963.3,125.6c12.87,0,18.75-7.84,18.75-19.77s-5.88-19.77-18.75-19.77h-5.28v39.55h5.28Z"/>
  <polygon class="st0" points="950.85 228.98 950.85 220.63 955.46 220.63 955.46 179.38 950.85 179.38 950.85 171.02 993.81 171.02 993.81 187.05 985.29 187.05 983.66 180.23 967.39 180.23 967.39 195.32 986.82 195.32 986.82 204.44 967.39 204.44 967.39 219.78 984.85 219.78 986.48 212.96 995 212.96 995 228.98 950.85 228.98"/>
  <path class="st0" d="M907.99,273.56h-5.11v-8.35h19.86v8.35h-4.6v49.6h-8.7l-24.46-32.21c-2.73-3.58-4.78-7.75-5.03-8.35,0,.33.42,6.56.42,11.33v20.87h5.03v8.36h-19.77v-8.36h4.6v-41.24h-4.6v-8.35h14.14l24.29,31.96c2.05,2.81,4.7,7.51,5.03,8.02-.08-.43-1.11-6.49-1.11-10.49v-21.14Z"/>
  <rect class="st0" x="123.01" y="76.84" width="118.04" height="118.04"/>
  <rect class="st0" x="123.01" y="205.15" width="118.04" height="10.26"/>
  <rect class="st0" x="123.01" y="225.66" width="118.04" height="8.98"/>
  <rect class="st0" x="123.01" y="244.91" width="118.04" height="7.7"/>
  <rect class="st0" x="123.01" y="262.88" width="118.04" height="6.41"/>
  <rect class="st0" x="123.01" y="279.54" width="118.04" height="5.13"/>
  <rect class="st0" x="123.01" y="294.94" width="118.04" height="3.84"/>
  <rect class="st0" x="123.01" y="309.06" width="118.04" height="2.56"/>
  <rect class="st0" x="123.01" y="321.88" width="118.04" height="1.28"/>
</svg>